<svg width="100" height="98" viewBox="0 0 100 98" fill="none" xmlns="http://www.w3.org/2000/svg">
<path d="M99.1137 40.1387C99.7084 43.4055 100.005 46.7155 99.9999 50.0313C99.9999 64.8397 94.4529 77.3606 84.7997 85.8356H84.8125C76.3708 93.2763 64.7666 97.5838 51.0074 97.5838C37.4794 97.5838 24.5054 92.4559 14.9397 83.3281C5.37398 74.2003 0 61.8204 0 48.9118C0 36.0032 5.37398 23.6233 14.9397 14.4955C24.5054 5.36772 37.4794 0.239784 51.0074 0.239784C63.6695 0.0982801 75.898 4.6375 85.1313 12.9067L70.5687 26.8025C65.3046 22.0143 58.2791 19.3922 51.0074 19.5017C37.7008 19.5017 26.3963 28.068 22.3667 39.6033C20.2302 45.6478 20.2302 52.1941 22.3667 58.2386H22.3859C26.4346 69.7556 37.7199 78.3219 51.0265 78.3219C57.8997 78.3219 63.8038 76.6427 68.3817 73.6737H68.3626C71.0208 71.9933 73.2946 69.8164 75.0468 67.2744C76.7991 64.7324 77.9934 61.878 78.5577 58.8835H51.0074V40.1448L99.1137 40.1387Z" fill="black"/>
</svg>
