<svg width="34" height="26" viewBox="0 0 34 26" fill="none" xmlns="http://www.w3.org/2000/svg">
<path d="M24.724 0.0932617H9.27621C6.88708 0.0952198 4.59653 0.823246 2.90716 2.1176C1.21778 3.41195 0.26757 5.1669 0.265015 6.99739V18.833C0.26757 20.6635 1.21778 22.4185 2.90716 23.7128C4.59653 25.0072 6.88708 25.7352 9.27621 25.7372H24.724C27.1131 25.7352 29.4037 25.0072 31.093 23.7128C32.7824 22.4185 33.7326 20.6635 33.7352 18.833V6.99739C33.7326 5.1669 32.7824 3.41195 31.093 2.1176C29.4037 0.823246 27.1131 0.0952198 24.724 0.0932617ZM17.0001 18.833C15.4725 18.833 13.9791 18.486 12.7089 17.8357C11.4388 17.1854 10.4488 16.2612 9.86416 15.1799C9.27956 14.0985 9.1266 12.9086 9.42463 11.7607C9.72265 10.6128 10.4583 9.5583 11.5385 8.73068C12.6187 7.90305 13.995 7.33944 15.4932 7.1111C16.9915 6.88276 18.5445 6.99995 19.9559 7.44785C21.3673 7.89576 22.5736 8.65426 23.4223 9.62744C24.271 10.6006 24.724 11.7448 24.724 12.9152C24.7219 14.4842 23.9074 15.9885 22.4594 17.0979C21.0113 18.2074 19.0479 18.8314 17.0001 18.833ZM26.655 6.99739C26.273 6.99739 25.8997 6.91062 25.5822 6.74805C25.2646 6.58549 25.0171 6.35443 24.871 6.08409C24.7248 5.81376 24.6866 5.51629 24.7611 5.2293C24.8356 4.94232 25.0195 4.6787 25.2896 4.4718C25.5596 4.26489 25.9037 4.12399 26.2782 4.0669C26.6528 4.00982 27.0411 4.03912 27.3939 4.15109C27.7467 4.26307 28.0483 4.45269 28.2605 4.69599C28.4727 4.93929 28.5859 5.22532 28.5859 5.51793C28.5859 5.91031 28.3825 6.28661 28.0204 6.56406C27.6582 6.84152 27.1671 6.99739 26.655 6.99739ZM22.1494 12.9152C22.1494 13.6955 21.8474 14.4583 21.2815 15.1071C20.7157 15.7558 19.9115 16.2615 18.9706 16.5601C18.0297 16.8587 16.9944 16.9368 15.9955 16.7846C14.9967 16.6324 14.0792 16.2566 13.359 15.7049C12.6389 15.1531 12.1485 14.4502 11.9498 13.6849C11.7511 12.9196 11.8531 12.1263 12.2428 11.4054C12.6325 10.6845 13.2925 10.0684 14.1393 9.63488C14.9861 9.20138 15.9817 8.96999 17.0001 8.96999C18.3658 8.96999 19.6755 9.38565 20.6412 10.1255C21.6068 10.8654 22.1494 11.8689 22.1494 12.9152Z" fill="black"/>
</svg>
