<svg width="100" height="98" viewBox="0 0 100 98" fill="none" xmlns="http://www.w3.org/2000/svg">
<path d="M91.9625 0.236572H8.0375C3.6 0.236572 0 3.74107 0 8.06086V89.7595C0 94.0793 3.6 97.5838 8.0375 97.5838H91.9625C96.4 97.5838 100 94.0793 100 89.7595V8.06086C100 3.74107 96.4 0.236572 91.9625 0.236572ZM91.9625 89.796C35.9875 89.7839 8 89.7717 8 89.7595C8.0125 35.2694 8.025 8.02435 8.0375 8.02435C64.0125 8.03652 92 8.04869 92 8.06086C91.9875 62.551 91.975 89.796 91.9625 89.796ZM14.825 36.7296H29.6625V83.1886H14.825V36.7296ZM22.25 30.3777C26.9875 30.3777 30.85 26.6298 30.85 22.0058C30.85 20.9064 30.6276 19.8178 30.1954 18.8021C29.7632 17.7864 29.1297 16.8634 28.3311 16.086C27.5325 15.3086 26.5845 14.692 25.5411 14.2713C24.4977 13.8505 23.3794 13.634 22.25 13.634C21.1206 13.634 20.0023 13.8505 18.9589 14.2713C17.9155 14.692 16.9675 15.3086 16.1689 16.086C15.3703 16.8634 14.7368 17.7864 14.3046 18.8021C13.8724 19.8178 13.65 20.9064 13.65 22.0058C13.6375 26.6298 17.4875 30.3777 22.25 30.3777ZM53.7875 60.2025C53.7875 54.1426 54.975 48.2774 62.6875 48.2774C70.2875 48.2774 70.4 55.2013 70.4 60.5919V83.1886H85.225V57.7079C85.225 45.1988 82.45 35.5736 67.4375 35.5736C60.225 35.5736 55.3875 39.431 53.4 43.0815H53.2V36.7296H38.9625V83.1886H53.7875V60.2025Z" fill="black"/>
</svg>
