<svg width="140" height="98" viewBox="0 0 140 98" fill="none" xmlns="http://www.w3.org/2000/svg">
<path d="M100.478 0.236572C88.9979 0.236572 80.023 9.28338 71.8979 20.7768C60.7337 5.90218 51.3991 0.236572 40.2286 0.236572C17.4535 0.236572 0 31.2579 0 64.0834C0 84.6237 9.49583 97.5838 25.4049 97.5838C36.8545 97.5838 45.0913 91.9377 59.7351 65.1542C59.7351 65.1542 65.8382 53.8814 70.031 46.1131C71.5072 48.5987 73.0516 51.2725 74.6828 54.1475L81.5488 66.2315C94.9211 89.6468 102.376 97.5838 115.873 97.5838C131.379 97.5838 140 84.4484 140 63.4798C140 29.1033 122.156 0.236572 100.478 0.236572ZM48.5646 57.9051C36.6994 77.3745 32.5935 81.7422 25.9879 81.7422C19.1839 81.7422 15.14 75.4925 15.14 64.3495C15.14 40.5189 26.4965 16.1496 40.0363 16.1496C47.3675 16.1496 53.4955 20.5757 62.8797 34.6326C53.9669 48.9362 48.5646 57.9051 48.5646 57.9051ZM93.3705 55.4584L85.1586 41.1224C83.0956 37.597 80.9615 34.1177 78.7578 30.6868C86.1572 18.739 92.2541 12.7814 99.5171 12.7814C114.589 12.7814 126.652 36.0149 126.652 64.5442C126.652 75.4211 123.247 81.7357 116.195 81.7357C109.435 81.7357 106.209 77.0695 93.3705 55.4584Z" fill="black"/>
</svg>
