<svg width="108" height="106" viewBox="0 0 108 106" fill="none" xmlns="http://www.w3.org/2000/svg">
<g filter="url(#filter0_d_42_98)">
<path d="M48.7812 18.6052H64.4375L81.6073 1.85763C82.0925 1.38196 82.6697 1.0044 83.3056 0.74675C83.9416 0.489098 84.6237 0.356445 85.3126 0.356445C86.0016 0.356445 86.6837 0.489098 87.3197 0.74675C87.9556 1.0044 88.5328 1.38196 89.018 1.85763L102.482 15.002C103.454 15.9528 104 17.2391 104 18.5799C104 19.9206 103.454 21.2069 102.482 22.1578L90.5314 33.8303H48.7812V43.9804C48.7812 45.3264 48.2314 46.6172 47.2527 47.569C46.274 48.5208 44.9465 49.0554 43.5624 49.0554C42.1783 49.0554 40.8509 48.5208 39.8722 47.569C38.8935 46.6172 38.3437 45.3264 38.3437 43.9804V28.7553C38.3437 26.0633 39.4433 23.4816 41.4008 21.5781C43.3582 19.6746 46.013 18.6052 48.7812 18.6052ZM17.4686 43.9804V64.2805L5.51758 75.9024C4.54558 76.8532 4 78.1395 4 79.4803C4 80.821 4.54558 82.1073 5.51758 83.0582L18.982 96.2025C19.4672 96.6782 20.0444 97.0557 20.6803 97.3134C21.3163 97.571 21.9984 97.7037 22.6873 97.7037C23.3763 97.7037 24.0584 97.571 24.6944 97.3134C25.3303 97.0557 25.9075 96.6782 26.3927 96.2025L48.7812 74.4306H69.6563C71.0404 74.4306 72.3678 73.8959 73.3465 72.9442C74.3253 71.9924 74.8751 70.7016 74.8751 69.3556V64.2805H80.0939C81.478 64.2805 82.8054 63.7459 83.7841 62.7941C84.7628 61.8423 85.3126 60.5515 85.3126 59.2055V54.1305H90.5314C91.9155 54.1305 93.2429 53.5958 94.2217 52.644C95.2004 51.6923 95.7502 50.4014 95.7502 49.0554V43.9804H59.2188V49.0554C59.2188 51.7474 58.1191 54.3291 56.1617 56.2326C54.2043 58.1361 51.5494 59.2055 48.7812 59.2055H38.3437C35.5755 59.2055 32.9206 58.1361 30.9632 56.2326C29.0058 54.3291 27.9061 51.7474 27.9061 49.0554V33.8303L17.4686 43.9804Z" fill="black"/>
<path d="M27.4061 35.014V49.0554C27.4061 51.8846 28.562 54.5949 30.6146 56.5911C32.6668 58.5867 35.4473 59.7055 38.3437 59.7055H48.7812C51.6776 59.7055 54.4581 58.5867 56.5103 56.5911C58.5629 54.5949 59.7188 51.8846 59.7188 49.0554V44.4804H95.2502V49.0554C95.2502 50.2642 94.7565 51.4264 93.8731 52.2856C92.9891 53.1452 91.7874 53.6305 90.5314 53.6305H85.3126H84.8126V54.1305V59.2055C84.8126 60.4143 84.319 61.5765 83.4355 62.4356C82.5516 63.2952 81.3498 63.7805 80.0939 63.7805H74.8751H74.3751V64.2805V69.3556C74.3751 70.5644 73.8814 71.7266 72.998 72.5857C72.114 73.4453 70.9122 73.9306 69.6563 73.9306H48.7812H48.5782L48.4326 74.0722L26.0441 95.844L26.0426 95.8455C25.6046 96.275 25.0827 96.6166 24.5066 96.85C23.9306 97.0834 23.3122 97.2037 22.6873 97.2037C22.0625 97.2037 21.4441 97.0834 20.8681 96.85C20.292 96.6166 19.7701 96.275 19.3321 95.8455L19.3313 95.8447L5.86723 82.7008L27.4061 35.014ZM27.4061 35.014L17.9686 44.1916V64.2805V64.4918L17.8172 64.639L5.86723 76.2598C5.86709 76.2599 5.86696 76.2601 5.86683 76.2602C4.9897 77.1185 4.5 78.2764 4.5 79.4803C4.5 80.6842 4.98971 81.8421 5.86686 82.7004L27.4061 35.014ZM64.4375 19.1052H64.641L64.7867 18.9632L81.9564 2.21556L81.9574 2.21466C82.3954 1.78516 82.9173 1.44354 83.4934 1.21016C84.0694 0.976775 84.6878 0.856445 85.3126 0.856445C85.9375 0.856445 86.5558 0.976775 87.1319 1.21016C87.708 1.44354 88.2299 1.78516 88.6679 2.21466L88.6687 2.21541L102.133 15.3594C103.01 16.2177 103.5 17.3758 103.5 18.5799C103.5 19.784 103.01 20.942 102.133 21.8003L90.3278 33.3303H48.7812H48.2812V33.8303V43.9804C48.2812 45.1892 47.7876 46.3514 46.9041 47.2105C46.0202 48.0701 44.8184 48.5554 43.5624 48.5554C42.3065 48.5554 41.1047 48.0701 40.2208 47.2105C39.3373 46.3514 38.8437 45.1892 38.8437 43.9804V28.7553C38.8437 26.2005 39.8872 23.7475 41.7493 21.9366C43.612 20.1252 46.1412 19.1052 48.7812 19.1052H64.4375Z" stroke="black"/>
</g>
<defs>
<filter id="filter0_d_42_98" x="0" y="0.356445" width="108" height="105.347" filterUnits="userSpaceOnUse" color-interpolation-filters="sRGB">
<feFlood flood-opacity="0" result="BackgroundImageFix"/>
<feColorMatrix in="SourceAlpha" type="matrix" values="0 0 0 0 0 0 0 0 0 0 0 0 0 0 0 0 0 0 127 0" result="hardAlpha"/>
<feOffset dy="4"/>
<feGaussianBlur stdDeviation="2"/>
<feComposite in2="hardAlpha" operator="out"/>
<feColorMatrix type="matrix" values="0 0 0 0 0 0 0 0 0 0 0 0 0 0 0 0 0 0 0.25 0"/>
<feBlend mode="normal" in2="BackgroundImageFix" result="effect1_dropShadow_42_98"/>
<feBlend mode="normal" in="SourceGraphic" in2="effect1_dropShadow_42_98" result="shape"/>
</filter>
</defs>
</svg>
