<svg width="167" height="152" viewBox="0 0 167 152" fill="none" xmlns="http://www.w3.org/2000/svg">
<g filter="url(#filter0_i_92_25)">
<ellipse cx="83.5983" cy="75.8772" rx="83" ry="75.4441" fill="#9BA9FF"/>
</g>
<path d="M141.268 40.0773L85.0182 23.0415C84.056 22.7501 83.0157 22.7501 82.0534 23.0415L25.8034 40.0773C24.87 40.36 24.0582 40.9024 23.483 41.6276C22.9078 42.3528 22.5983 43.224 22.5983 44.118V86.7074C22.5983 87.8369 23.0922 88.9202 23.9713 89.7189C24.8503 90.5176 26.0426 90.9663 27.2858 90.9663C28.529 90.9663 29.7213 90.5176 30.6004 89.7189C31.4795 88.9202 31.9733 87.8369 31.9733 86.7074V50.0272L51.655 55.9844C46.4258 63.6601 44.763 72.9076 47.0315 81.6962C49.3001 90.4849 55.3147 98.0964 63.7546 102.859C53.2077 106.618 44.0905 113.416 37.4225 122.711C37.0758 123.18 36.8349 123.706 36.7139 124.26C36.593 124.813 36.5943 125.383 36.7179 125.936C36.8415 126.489 37.0849 127.015 37.4339 127.482C37.7829 127.949 38.2306 128.348 38.7509 128.656C39.2712 128.964 39.8538 129.176 40.4648 129.278C41.0758 129.38 41.703 129.37 42.3099 129.25C42.9169 129.13 43.4915 128.901 44.0004 128.578C44.5093 128.254 44.9422 127.841 45.2741 127.364C54.1042 115.056 68.0495 108.002 83.5358 108.002C99.0222 108.002 112.967 115.056 121.798 127.364C122.485 128.293 123.547 128.938 124.754 129.161C125.961 129.383 127.216 129.165 128.248 128.554C129.279 127.943 130.004 126.987 130.267 125.894C130.529 124.8 130.307 123.657 129.649 122.711C122.981 113.416 113.829 106.618 103.317 102.859C111.749 98.0966 117.758 90.49 120.026 81.7078C122.294 72.9256 120.637 63.6845 115.417 56.0111L141.268 48.1852C142.202 47.9027 143.014 47.3604 143.589 46.6352C144.165 45.91 144.474 45.0386 144.474 44.1446C144.474 43.2505 144.165 42.3792 143.589 41.654C143.014 40.9287 142.202 40.3864 141.268 40.1039V40.0773ZM111.661 73.9306C111.662 77.9705 110.609 81.9531 108.588 85.5516C106.567 89.1502 103.636 92.2621 100.035 94.6321C96.4345 97.0022 92.2665 98.5627 87.8733 99.1857C83.48 99.8088 78.9868 99.4765 74.7623 98.2163C70.5377 96.9561 66.7023 94.8037 63.5705 91.9359C60.4388 89.0681 58.1001 85.5664 56.7462 81.7184C55.3924 77.8703 55.062 73.7854 55.7822 69.7988C56.5024 65.8123 58.2527 62.0377 60.8893 58.7847L82.0534 65.1731C83.0157 65.4646 84.056 65.4646 85.0182 65.1731L106.182 58.7847C109.744 63.1714 111.664 68.4796 111.661 73.9306Z" fill="black"/>
<defs>
<filter id="filter0_i_92_25" x="0.598328" y="0.433105" width="166" height="154.888" filterUnits="userSpaceOnUse" color-interpolation-filters="sRGB">
<feFlood flood-opacity="0" result="BackgroundImageFix"/>
<feBlend mode="normal" in="SourceGraphic" in2="BackgroundImageFix" result="shape"/>
<feColorMatrix in="SourceAlpha" type="matrix" values="0 0 0 0 0 0 0 0 0 0 0 0 0 0 0 0 0 0 127 0" result="hardAlpha"/>
<feOffset dy="4"/>
<feGaussianBlur stdDeviation="2"/>
<feComposite in2="hardAlpha" operator="arithmetic" k2="-1" k3="1"/>
<feColorMatrix type="matrix" values="0 0 0 0 0 0 0 0 0 0 0 0 0 0 0 0 0 0 0.25 0"/>
<feBlend mode="normal" in2="shape" result="effect1_innerShadow_92_25"/>
</filter>
</defs>
</svg>
