<svg width="59" height="49" viewBox="0 0 59 49" fill="none" xmlns="http://www.w3.org/2000/svg">
<path d="M29.2793 0.0769043C31.5419 0.0769043 33.7119 1.30423 35.3118 3.48889C36.9117 5.67354 37.8105 8.63657 37.8105 11.7261C37.8105 14.8157 36.9117 17.7787 35.3118 19.9634C33.7119 22.1481 31.5419 23.3754 29.2793 23.3754C27.0167 23.3754 24.8467 22.1481 23.2468 19.9634C21.6469 17.7787 20.748 14.8157 20.748 11.7261C20.748 8.63657 21.6469 5.67354 23.2468 3.48889C24.8467 1.30423 27.0167 0.0769043 29.2793 0.0769043ZM12.2168 8.39779C13.5818 8.39779 14.8493 8.89704 15.9462 9.7957C15.5805 14.5552 16.6043 19.2815 18.7005 22.976C17.4818 26.1712 15.0443 28.3679 12.2168 28.3679C10.2774 28.3679 8.41744 27.3159 7.04608 25.4434C5.67472 23.5708 4.9043 21.0311 4.9043 18.3829C4.9043 15.7346 5.67472 13.1949 7.04608 11.3223C8.41744 9.44978 10.2774 8.39779 12.2168 8.39779ZM46.3418 8.39779C48.2812 8.39779 50.1412 9.44978 51.5125 11.3223C52.8839 13.1949 53.6543 15.7346 53.6543 18.3829C53.6543 21.0311 52.8839 23.5708 51.5125 25.4434C50.1412 27.3159 48.2812 28.3679 46.3418 28.3679C43.5143 28.3679 41.0768 26.1712 39.858 22.976C41.9832 19.2296 42.9697 14.5093 42.6124 9.7957C43.7093 8.89704 44.9768 8.39779 46.3418 8.39779ZM13.4355 42.5134C13.4355 35.6237 20.5287 30.0321 29.2793 30.0321C38.0299 30.0321 45.123 35.6237 45.123 42.5134V48.338H13.4355V42.5134ZM0.0292969 48.338V43.3455C0.0292969 38.7191 4.63617 34.8249 10.8762 33.6933C9.43805 35.9566 8.56055 39.0852 8.56055 42.5134V48.338H0.0292969ZM58.5293 48.338H49.998V42.5134C49.998 39.0852 49.1205 35.9566 47.6824 33.6933C53.9224 34.8249 58.5293 38.7191 58.5293 43.3455V48.338Z" fill="black"/>
</svg>
