<svg width="60" height="49" viewBox="0 0 60 49" fill="none" xmlns="http://www.w3.org/2000/svg">
<path d="M30.0282 0.0769043C32.2908 0.0769043 34.4608 1.30423 36.0607 3.48889C37.6606 5.67354 38.5594 8.63657 38.5594 11.7261C38.5594 14.8157 37.6606 17.7787 36.0607 19.9634C34.4608 22.1481 32.2908 23.3754 30.0282 23.3754C27.7656 23.3754 25.5956 22.1481 23.9957 19.9634C22.3958 17.7787 21.4969 14.8157 21.4969 11.7261C21.4969 8.63657 22.3958 5.67354 23.9957 3.48889C25.5956 1.30423 27.7656 0.0769043 30.0282 0.0769043ZM12.9657 8.39779C14.3307 8.39779 15.5982 8.89704 16.6951 9.7957C16.3294 14.5552 17.3532 19.2815 19.4494 22.976C18.2307 26.1712 15.7932 28.3679 12.9657 28.3679C11.0263 28.3679 9.16634 27.3159 7.79498 25.4434C6.42362 23.5708 5.6532 21.0311 5.6532 18.3829C5.6532 15.7346 6.42362 13.1949 7.79498 11.3223C9.16634 9.44978 11.0263 8.39779 12.9657 8.39779ZM47.0907 8.39779C49.0301 8.39779 50.8901 9.44978 52.2614 11.3223C53.6328 13.1949 54.4032 15.7346 54.4032 18.3829C54.4032 21.0311 53.6328 23.5708 52.2614 25.4434C50.8901 27.3159 49.0301 28.3679 47.0907 28.3679C44.2632 28.3679 41.8257 26.1712 40.6069 22.976C42.7321 19.2296 43.7186 14.5093 43.3613 9.7957C44.4582 8.89704 45.7257 8.39779 47.0907 8.39779ZM14.1844 42.5134C14.1844 35.6237 21.2776 30.0321 30.0282 30.0321C38.7788 30.0321 45.8719 35.6237 45.8719 42.5134V48.338H14.1844V42.5134ZM0.778198 48.338V43.3455C0.778198 38.7191 5.38507 34.8249 11.6251 33.6933C10.1869 35.9566 9.30945 39.0852 9.30945 42.5134V48.338H0.778198ZM59.2782 48.338H50.7469V42.5134C50.7469 39.0852 49.8694 35.9566 48.4313 33.6933C54.6713 34.8249 59.2782 38.7191 59.2782 43.3455V48.338Z" fill="black"/>
</svg>
