<svg width="37" height="23" viewBox="0 0 37 23" fill="none" xmlns="http://www.w3.org/2000/svg">
<path d="M36.3569 3.02467C35.0353 3.48495 33.6107 3.78742 32.1345 3.93207C33.645 3.23509 34.8122 2.13043 35.3614 0.802203C33.9368 1.45974 32.3577 1.92001 30.6928 2.18303C29.3368 1.05207 27.4316 0.394531 25.2689 0.394531C21.2353 0.394531 17.9398 2.91947 17.9398 6.03619C17.9398 6.48331 18.0084 6.91729 18.1286 7.32496C12.0181 7.08824 6.57708 4.83947 2.95543 1.43344C2.32036 2.26193 1.95991 3.23509 1.95991 4.26084C1.95991 6.2203 3.24723 7.95619 5.23827 8.94249C4.01961 8.94249 2.88678 8.67948 1.89125 8.28496V8.32441C1.89125 11.0598 4.43155 13.348 7.79573 13.8609C6.71564 14.0873 5.58172 14.1188 4.48305 13.9529C4.94924 15.074 5.86225 16.0549 7.09375 16.7579C8.32524 17.4608 9.81329 17.8504 11.3487 17.8718C8.746 19.4505 5.51976 20.3038 2.20021 20.2916C1.61663 20.2916 1.03305 20.2653 0.449463 20.2127C3.71066 21.817 7.58976 22.7507 11.7435 22.7507C25.2689 22.7507 32.701 14.1502 32.701 6.69372C32.701 6.44386 32.701 6.20715 32.6838 5.95728C34.1256 5.16824 35.3614 4.16879 36.3569 3.02467Z" fill="black"/>
</svg>
