<svg width="129" height="115" viewBox="0 0 129 115" fill="none" xmlns="http://www.w3.org/2000/svg">
<path d="M116.223 86.0814C119.539 86.0814 122.718 84.8849 125.062 82.755C127.406 80.6251 128.723 77.7364 128.723 74.7242V12.2598C128.723 9.24765 127.406 6.35891 125.062 4.22903C122.718 2.09914 119.539 0.902588 116.223 0.902588H50.3484C52.5359 4.36653 53.7234 8.28475 53.7234 12.2598H116.223V74.7242H59.9734V86.0814M84.9734 29.2955V40.6527H47.4734V114.474H34.9734V80.4028H22.4734V114.474H9.97339V69.0457H0.598389V40.6527C0.598389 37.6406 1.91535 34.7519 4.25955 32.622C6.60376 30.4921 9.78318 29.2955 13.0984 29.2955H84.9734ZM41.2234 12.2598C41.2234 15.2719 39.9064 18.1606 37.5622 20.2905C35.218 22.4204 32.0386 23.6169 28.7234 23.6169C25.4082 23.6169 22.2288 22.4204 19.8846 20.2905C17.5403 18.1606 16.2234 15.2719 16.2234 12.2598C16.2234 9.24765 17.5403 6.35891 19.8846 4.22903C22.2288 2.09914 25.4082 0.902588 28.7234 0.902588C32.0386 0.902588 35.218 2.09914 37.5622 4.22903C39.9064 6.35891 41.2234 9.24765 41.2234 12.2598Z" fill="black"/>
</svg>
