<svg width="19" height="17" viewBox="0 0 19 17" fill="none" xmlns="http://www.w3.org/2000/svg">
<path d="M9.5 0C7.62108 0 5.78435 0.480363 4.22209 1.38034C2.65982 2.28033 1.44218 3.55951 0.723148 5.05612C0.00411604 6.55273 -0.184015 8.19957 0.182544 9.78836C0.549104 11.3772 1.45389 12.8366 2.78249 13.982C4.11109 15.1275 5.80383 15.9076 7.64664 16.2236C9.48946 16.5396 11.3996 16.3774 13.1355 15.7575C14.8714 15.1376 16.3551 14.0878 17.399 12.7409C18.4428 11.394 19 9.81041 19 8.19048C18.997 6.01901 17.9952 3.93721 16.2142 2.40175C14.4333 0.866292 12.0187 0.00255017 9.5 0ZM9.5 15.4174C7.84213 15.4174 6.22149 14.9935 4.84302 14.1994C3.46455 13.4053 2.39016 12.2766 1.75572 10.9561C1.12128 9.63555 0.955281 8.18246 1.27872 6.78058C1.60215 5.3787 2.40049 4.09099 3.57278 3.08029C4.74508 2.0696 6.23867 1.3813 7.86469 1.10245C9.4907 0.823597 11.1761 0.966714 12.7078 1.5137C14.2395 2.06069 15.5486 2.98698 16.4697 4.17543C17.3907 5.36389 17.8824 6.76114 17.8824 8.19048C17.8799 10.1065 16.996 11.9435 15.4245 13.2983C13.853 14.6532 11.7224 15.4153 9.5 15.4174ZM6.33334 8.19048C6.33334 8.76349 6.54245 9.32198 6.93107 9.78683C7.31968 10.2517 7.86809 10.5993 8.49861 10.7805C9.12914 10.9617 9.8098 10.9673 10.4442 10.7965C11.0786 10.6256 11.6346 10.287 12.0333 9.82858C12.1224 9.72635 12.2549 9.65882 12.4017 9.64082C12.5485 9.62282 12.6976 9.65585 12.8162 9.73262C12.9347 9.80939 13.0131 9.92363 13.0339 10.0502C13.0548 10.1768 13.0165 10.3053 12.9275 10.4075C12.3878 11.0275 11.6356 11.4855 10.7773 11.7164C9.91905 11.9474 8.99826 11.9397 8.14533 11.6945C7.2924 11.4493 6.55058 10.9789 6.02492 10.35C5.49925 9.72117 5.21639 8.96565 5.21639 8.19048C5.21639 7.41531 5.49925 6.65979 6.02492 6.03091C6.55058 5.40203 7.2924 4.93167 8.14533 4.68644C8.99826 4.44122 9.91905 4.43355 10.7773 4.66453C11.6356 4.8955 12.3878 5.35342 12.9275 5.97343C13.0165 6.07565 13.0548 6.20419 13.0339 6.33076C13.0131 6.45733 12.9347 6.57157 12.8162 6.64834C12.6976 6.72512 12.5485 6.75814 12.4017 6.74014C12.2549 6.72215 12.1224 6.65461 12.0333 6.55238C11.6346 6.09397 11.0786 5.75536 10.4442 5.58451C9.8098 5.41365 9.12914 5.41922 8.49861 5.60042C7.86809 5.78163 7.31968 6.12928 6.93107 6.59413C6.54245 7.05898 6.33334 7.61747 6.33334 8.19048Z" fill="black"/>
</svg>
