<svg data-v-423bf9ae="" xmlns="http://www.w3.org/2000/svg" viewBox="0 0 385 90" class="iconLeft"><!----><!----><!----><g data-v-423bf9ae="" id="06ca5a37-dfdf-44e2-89a0-9ce73f9bd7ee" fill="#341930" transform="matrix(4.8899757477580295,0,0,4.8899757477580295,100.80684217325091,-7.200489231446525)"><path d="M1.88 13.78L7.57 13.78L7.57 12.78L3.02 12.78L3.02 4.54L1.88 4.54ZM13.02 13.96C14.11 13.96 14.97 13.57 15.64 13.12L15.23 12.35C14.60 12.77 13.96 13.02 13.16 13.02C11.68 13.02 10.61 12.03 10.56 10.49L15.88 10.49C15.90 10.30 15.92 10.05 15.92 9.81C15.92 7.80 14.77 6.47 12.82 6.47C11.06 6.47 9.37 7.90 9.37 10.22C9.37 12.56 11.00 13.96 13.02 13.96ZM10.54 9.65C10.72 8.22 11.73 7.38 12.84 7.38C14.10 7.38 14.85 8.19 14.85 9.65ZM20.24 13.96C21.21 13.96 22.18 13.41 22.93 12.80L22.97 12.80L23.07 13.78L24.01 13.78L24.01 9.38C24.01 7.63 23.11 6.47 21.25 6.47C20.06 6.47 19.05 7.03 18.51 7.49L18.96 8.29C19.45 7.87 20.17 7.42 21.06 7.42C22.37 7.42 22.83 8.27 22.86 9.25C19.35 9.56 17.93 10.33 17.93 11.94C17.93 13.22 18.97 13.96 20.24 13.96ZM20.55 13.03C19.77 13.03 19.05 12.68 19.05 11.86C19.05 10.89 19.95 10.28 22.86 10.02L22.86 11.94C22.09 12.64 21.32 13.03 20.55 13.03ZM27.24 13.78L28.39 13.78L28.39 9.56C29.20 8.06 30.17 7.50 31.19 7.50C31.72 7.50 31.98 7.57 32.45 7.76L32.72 6.76C32.30 6.54 31.88 6.47 31.37 6.47C30.11 6.47 29.05 7.20 28.34 8.34L28.29 8.34L28.20 6.64L27.24 6.64ZM34.90 13.78L36.05 13.78L36.05 8.79C36.85 7.90 37.39 7.46 38.21 7.46C39.33 7.46 39.77 8.12 39.77 9.49L39.77 13.78L40.92 13.78L40.92 9.34C40.92 7.46 40.18 6.47 38.57 6.47C37.51 6.47 36.72 7.07 36.01 7.88L35.95 7.88L35.85 6.64L34.90 6.64ZM42.99 13.78L49.45 13.78L49.45 12.84L44.63 12.84L49.31 7.25L49.31 6.64L43.51 6.64L43.51 7.57L47.66 7.57L42.99 13.16ZM52.23 16.81C53.77 16.81 54.60 15.74 55.13 14.36L58.11 6.64L57.02 6.64L55.54 10.65C55.30 11.30 55.05 12.04 54.81 12.71L54.75 12.71C54.47 12.03 54.18 11.28 53.91 10.65L52.25 6.64L51.09 6.64L54.26 13.80L54.07 14.31C53.70 15.25 53.14 15.86 52.19 15.86C51.98 15.86 51.76 15.82 51.58 15.76L51.34 16.67C51.58 16.76 51.91 16.81 52.23 16.81Z"></path></g><defs data-v-423bf9ae=""><linearGradient data-v-423bf9ae="" gradientTransform="rotate(25)" id="e8849dd4-467c-46cb-8d9e-d3f6f91a6f8c" x1="0%" y1="0%" x2="100%" y2="0%"><stop data-v-423bf9ae="" offset="0%" style="stop-color: rgb(142, 66, 211); stop-opacity: 1;"></stop><stop data-v-423bf9ae="" offset="100%" style="stop-color: rgb(212, 105, 117); stop-opacity: 1;"></stop></linearGradient></defs><g data-v-423bf9ae="" id="fecbcef7-2120-4dd4-8d9d-fed39bdeb55b" transform="matrix(2.8125,0,0,2.8125,0,0)" stroke="none" fill="url(#e8849dd4-467c-46cb-8d9e-d3f6f91a6f8c)"><path d="M16 32c8.837 0 16-7.163 16-16S24.837 0 16 0 0 7.163 0 16s7.163 16 16 16zM14.817 6.421h2v8.886h8.887v2H14.817V6.421zm-5.959.437h2v14.283h14.283v2H8.858V6.858z"></path></g><!----></svg>